<svg width="20" height="28" viewBox="0 0 20 28" fill="none" xmlns="http://www.w3.org/2000/svg">
<path d="M10 1.4636V13.8334M10 13.8334L18.5 7.68457M10 13.8334L1.5 7.68457M10 13.8334V26.2032M18.5 19.9821L10.777 14.3955C10.4934 14.1903 10.3516 14.0877 10.2015 14.0475C10.0685 14.0119 9.93146 14.0119 9.79855 14.0475C9.64838 14.0877 9.50658 14.1903 9.22297 14.3955L1.5 19.9821M19 19.118V8.54881C19 8.10266 19 7.87959 18.9495 7.68063C18.9049 7.50462 18.8318 7.34305 18.7354 7.20674C18.6263 7.05265 18.4766 6.94432 18.177 6.72765L10.777 1.37464C10.4934 1.16949 10.3516 1.06691 10.2015 1.02669C10.0685 0.991102 9.93146 0.991102 9.79855 1.02669C9.64838 1.06691 9.50658 1.16949 9.22297 1.37464L1.82297 6.72765C1.52345 6.94432 1.37369 7.05266 1.26463 7.20674C1.16816 7.34306 1.09515 7.50462 1.05048 7.68063C1 7.87959 1 8.10266 1 8.54881V19.118C1 19.5641 1 19.7872 1.05048 19.9861C1.09515 20.1622 1.16816 20.3237 1.26463 20.46C1.37369 20.6141 1.52345 20.7225 1.82297 20.9391L9.22297 26.2921C9.50658 26.4973 9.64838 26.5999 9.79855 26.6401C9.93146 26.6757 10.0685 26.6757 10.2015 26.6401C10.3516 26.5999 10.4934 26.4973 10.777 26.2921L18.177 20.9391C18.4766 20.7225 18.6263 20.6141 18.7354 20.46C18.8318 20.3237 18.9049 20.1622 18.9495 19.9861C19 19.7872 19 19.5641 19 19.118Z" stroke="#FF5555" stroke-width="2" stroke-linecap="round" stroke-linejoin="round"/>
</svg>
